<?xml version="1.0" encoding="UTF-8" standalone="no"?>
<!DOCTYPE svg PUBLIC "-//W3C//DTD SVG 1.1//EN"
 "http://www.w3.org/Graphics/SVG/1.1/DTD/svg11.dtd">
<!-- Generated by graphviz version 2.43.0 (0)
 -->
<!-- Title: Branch Pages: 1 -->
<svg width="805pt" height="88pt"
 viewBox="0.00 0.00 804.87 88.00" xmlns="http://www.w3.org/2000/svg" xmlns:xlink="http://www.w3.org/1999/xlink">
<g id="graph0" class="graph" transform="scale(1 1) rotate(0) translate(4 84)">
<title>Branch</title>
<polygon fill="white" stroke="transparent" points="-4,4 -4,-84 800.87,-84 800.87,4 -4,4"/>
<!-- start -->
<g id="node1" class="node">
<title>start</title>
<polygon fill="none" stroke="black" points="48.72,-41 -0.22,-23 48.72,-5 97.65,-23 48.72,-41"/>
<polyline fill="none" stroke="black" points="11.05,-27.14 11.05,-18.86 "/>
<polyline fill="none" stroke="black" points="37.45,-9.14 59.98,-9.14 "/>
<polyline fill="none" stroke="black" points="86.38,-18.86 86.38,-27.14 "/>
<polyline fill="none" stroke="black" points="59.98,-36.86 37.45,-36.86 "/>
<text text-anchor="middle" x="48.72" y="-19.3" font-family="Times,serif" font-size="14.00">Start</text>
</g>
<!-- plan -->
<g id="node3" class="node">
<title>plan</title>
<polygon fill="none" stroke="black" points="188.43,-41 134.43,-41 134.43,-5 188.43,-5 188.43,-41"/>
<text text-anchor="middle" x="161.43" y="-19.3" font-family="Times,serif" font-size="14.00">Plan</text>
</g>
<!-- start&#45;&gt;plan -->
<g id="edge1" class="edge">
<title>start&#45;&gt;plan</title>
<path fill="none" stroke="black" d="M97.63,-23C106.61,-23 115.85,-23 124.39,-23"/>
<polygon fill="black" stroke="black" points="124.39,-26.5 134.39,-23 124.39,-19.5 124.39,-26.5"/>
</g>
<!-- exit -->
<g id="node2" class="node">
<title>exit</title>
<polygon fill="none" stroke="black" points="796.87,-46 750.87,-46 750.87,0 796.87,0 796.87,-46"/>
<polyline fill="none" stroke="black" points="762.87,-46 750.87,-34 "/>
<polyline fill="none" stroke="black" points="750.87,-12 762.87,0 "/>
<polyline fill="none" stroke="black" points="784.87,0 796.87,-12 "/>
<polyline fill="none" stroke="black" points="796.87,-34 784.87,-46 "/>
<text text-anchor="middle" x="773.87" y="-19.3" font-family="Times,serif" font-size="14.00">Exit</text>
</g>
<!-- implement -->
<g id="node4" class="node">
<title>implement</title>
<polygon fill="none" stroke="black" points="319.43,-41 225.43,-41 225.43,-5 319.43,-5 319.43,-41"/>
<text text-anchor="middle" x="272.43" y="-19.3" font-family="Times,serif" font-size="14.00">Implement</text>
</g>
<!-- plan&#45;&gt;implement -->
<g id="edge2" class="edge">
<title>plan&#45;&gt;implement</title>
<path fill="none" stroke="black" d="M188.54,-23C196.59,-23 205.78,-23 215.05,-23"/>
<polygon fill="black" stroke="black" points="215.08,-26.5 225.08,-23 215.08,-19.5 215.08,-26.5"/>
</g>
<!-- validate -->
<g id="node5" class="node">
<title>validate</title>
<polygon fill="none" stroke="black" points="430.43,-80 356.43,-80 356.43,-44 430.43,-44 430.43,-80"/>
<text text-anchor="middle" x="393.43" y="-58.3" font-family="Times,serif" font-size="14.00">Validate</text>
</g>
<!-- implement&#45;&gt;validate -->
<g id="edge3" class="edge">
<title>implement&#45;&gt;validate</title>
<path fill="none" stroke="black" d="M319.44,-38.08C328.28,-40.98 337.54,-44.01 346.38,-46.91"/>
<polygon fill="black" stroke="black" points="345.54,-50.32 356.13,-50.1 347.72,-43.66 345.54,-50.32"/>
</g>
<!-- gate -->
<g id="node6" class="node">
<title>gate</title>
<polygon fill="none" stroke="black" points="578.65,-41 467.21,-23 578.65,-5 690.09,-23 578.65,-41"/>
<text text-anchor="middle" x="578.65" y="-19.3" font-family="Times,serif" font-size="14.00">Tests passing?</text>
</g>
<!-- validate&#45;&gt;gate -->
<g id="edge4" class="edge">
<title>validate&#45;&gt;gate</title>
<path fill="none" stroke="black" d="M430.63,-54.29C456,-48.89 490.46,-41.56 519.64,-35.35"/>
<polygon fill="black" stroke="black" points="520.67,-38.71 529.72,-33.2 519.21,-31.86 520.67,-38.71"/>
</g>
<!-- gate&#45;&gt;exit -->
<g id="edge5" class="edge">
<title>gate&#45;&gt;exit</title>
<path fill="none" stroke="black" d="M690.08,-23C708.54,-23 726.31,-23 740.62,-23"/>
<polygon fill="black" stroke="black" points="740.85,-26.5 750.85,-23 740.85,-19.5 740.85,-26.5"/>
<text text-anchor="middle" x="720.37" y="-26.8" font-family="Times,serif" font-size="14.00">Yes</text>
</g>
<!-- gate&#45;&gt;implement -->
<g id="edge6" class="edge">
<title>gate&#45;&gt;implement</title>
<path fill="none" stroke="black" d="M483.19,-20.41C443.97,-19.67 398,-19.25 356.43,-20 347.74,-20.16 338.53,-20.41 329.54,-20.7"/>
<polygon fill="black" stroke="black" points="329.4,-17.2 319.52,-21.04 329.63,-24.2 329.4,-17.2"/>
<text text-anchor="middle" x="393.43" y="-23.8" font-family="Times,serif" font-size="14.00">No</text>
</g>
</g>
</svg>
