<?xml version="1.0" encoding="UTF-8" standalone="no"?>
<!DOCTYPE svg PUBLIC "-//W3C//DTD SVG 1.1//EN"
 "http://www.w3.org/Graphics/SVG/1.1/DTD/svg11.dtd">
<!-- Generated by graphviz version 2.43.0 (0)
 -->
<!-- Title: Pipeline Pages: 1 -->
<svg width="170pt" height="340pt"
 viewBox="0.00 0.00 170.49 340.00" xmlns="http://www.w3.org/2000/svg" xmlns:xlink="http://www.w3.org/1999/xlink">
<g id="graph0" class="graph" transform="scale(1 1) rotate(0) translate(4 336)">
<title>Pipeline</title>
<polygon fill="white" stroke="transparent" points="-4,4 -4,-336 166.49,-336 166.49,4 -4,4"/>
<!-- start -->
<g id="node1" class="node">
<title>start</title>
<polygon fill="none" stroke="black" points="81.24,-332 34.49,-314 81.24,-296 128,-314 81.24,-332"/>
<polyline fill="none" stroke="black" points="45.69,-318.31 45.69,-309.69 "/>
<polyline fill="none" stroke="black" points="70.04,-300.31 92.44,-300.31 "/>
<polyline fill="none" stroke="black" points="116.8,-309.69 116.8,-318.31 "/>
<polyline fill="none" stroke="black" points="92.44,-327.69 70.04,-327.69 "/>
<text text-anchor="middle" x="81.24" y="-310.3" font-family="Times,serif" font-size="14.00">start</text>
</g>
<!-- plan -->
<g id="node3" class="node planning">
<title>plan</title>
<ellipse fill="none" stroke="black" cx="81.24" cy="-242" rx="31.4" ry="18"/>
<text text-anchor="middle" x="81.24" y="-238.3" font-family="Times,serif" font-size="14.00">Plan</text>
</g>
<!-- start&#45;&gt;plan -->
<g id="edge1" class="edge">
<title>start&#45;&gt;plan</title>
<path fill="none" stroke="black" d="M81.24,-295.7C81.24,-287.98 81.24,-278.71 81.24,-270.11"/>
<polygon fill="black" stroke="black" points="84.74,-270.1 81.24,-260.1 77.74,-270.1 84.74,-270.1"/>
</g>
<!-- exit -->
<g id="node2" class="node">
<title>exit</title>
<polygon fill="none" stroke="black" points="103.24,-44 59.24,-44 59.24,0 103.24,0 103.24,-44"/>
<polyline fill="none" stroke="black" points="71.24,-44 59.24,-32 "/>
<polyline fill="none" stroke="black" points="59.24,-12 71.24,0 "/>
<polyline fill="none" stroke="black" points="91.24,0 103.24,-12 "/>
<polyline fill="none" stroke="black" points="103.24,-32 91.24,-44 "/>
<text text-anchor="middle" x="81.24" y="-18.3" font-family="Times,serif" font-size="14.00">exit</text>
</g>
<!-- implement -->
<g id="node4" class="node code">
<title>implement</title>
<ellipse fill="none" stroke="black" cx="81.24" cy="-170" rx="61.19" ry="18"/>
<text text-anchor="middle" x="81.24" y="-166.3" font-family="Times,serif" font-size="14.00">Implement</text>
</g>
<!-- plan&#45;&gt;implement -->
<g id="edge2" class="edge">
<title>plan&#45;&gt;implement</title>
<path fill="none" stroke="black" d="M81.24,-223.7C81.24,-215.98 81.24,-206.71 81.24,-198.11"/>
<polygon fill="black" stroke="black" points="84.74,-198.1 81.24,-188.1 77.74,-198.1 84.74,-198.1"/>
</g>
<!-- critical_review -->
<g id="node5" class="node code">
<title>critical_review</title>
<ellipse fill="none" stroke="black" cx="81.24" cy="-98" rx="81.49" ry="18"/>
<text text-anchor="middle" x="81.24" y="-94.3" font-family="Times,serif" font-size="14.00">Critical Review</text>
</g>
<!-- implement&#45;&gt;critical_review -->
<g id="edge3" class="edge">
<title>implement&#45;&gt;critical_review</title>
<path fill="none" stroke="black" d="M81.24,-151.7C81.24,-143.98 81.24,-134.71 81.24,-126.11"/>
<polygon fill="black" stroke="black" points="84.74,-126.1 81.24,-116.1 77.74,-126.1 84.74,-126.1"/>
</g>
<!-- critical_review&#45;&gt;exit -->
<g id="edge4" class="edge">
<title>critical_review&#45;&gt;exit</title>
<path fill="none" stroke="black" d="M81.24,-79.84C81.24,-72.16 81.24,-62.88 81.24,-54.05"/>
<polygon fill="black" stroke="black" points="84.74,-54.03 81.24,-44.03 77.74,-54.03 84.74,-54.03"/>
</g>
</g>
</svg>
