<?xml version="1.0" encoding="UTF-8" standalone="no"?>
<!DOCTYPE svg PUBLIC "-//W3C//DTD SVG 1.1//EN"
 "http://www.w3.org/Graphics/SVG/1.1/DTD/svg11.dtd">
<!-- Generated by graphviz version 2.43.0 (0)
 -->
<!-- Title: Review Pages: 1 -->
<svg width="631pt" height="111pt"
 viewBox="0.00 0.00 630.75 111.00" xmlns="http://www.w3.org/2000/svg" xmlns:xlink="http://www.w3.org/1999/xlink">
<g id="graph0" class="graph" transform="scale(1 1) rotate(0) translate(4 107)">
<title>Review</title>
<polygon fill="white" stroke="transparent" points="-4,4 -4,-107 626.75,-107 626.75,4 -4,4"/>
<!-- start -->
<g id="node1" class="node">
<title>start</title>
<polygon fill="none" stroke="black" points="48.72,-60 -0.22,-42 48.72,-24 97.65,-42 48.72,-60"/>
<polyline fill="none" stroke="black" points="11.05,-46.14 11.05,-37.86 "/>
<polyline fill="none" stroke="black" points="37.45,-28.14 59.98,-28.14 "/>
<polyline fill="none" stroke="black" points="86.38,-37.86 86.38,-46.14 "/>
<polyline fill="none" stroke="black" points="59.98,-55.86 37.45,-55.86 "/>
<text text-anchor="middle" x="48.72" y="-38.3" font-family="Times,serif" font-size="14.00">Start</text>
</g>
<!-- review_gate -->
<g id="node3" class="node">
<title>review_gate</title>
<polygon fill="none" stroke="black" points="335.63,-42 285.31,-60 184.68,-60 134.37,-42 184.68,-24 285.31,-24 335.63,-42"/>
<text text-anchor="middle" x="235" y="-38.3" font-family="Times,serif" font-size="14.00">Review Changes</text>
</g>
<!-- start&#45;&gt;review_gate -->
<g id="edge1" class="edge">
<title>start&#45;&gt;review_gate</title>
<path fill="none" stroke="black" d="M97.65,-42C105.95,-42 114.88,-42 124.06,-42"/>
<polygon fill="black" stroke="black" points="124.09,-45.5 134.09,-42 124.09,-38.5 124.09,-45.5"/>
</g>
<!-- exit -->
<g id="node2" class="node">
<title>exit</title>
<polygon fill="none" stroke="black" points="622.75,-103 576.75,-103 576.75,-57 622.75,-57 622.75,-103"/>
<polyline fill="none" stroke="black" points="588.75,-103 576.75,-91 "/>
<polyline fill="none" stroke="black" points="576.75,-69 588.75,-57 "/>
<polyline fill="none" stroke="black" points="610.75,-57 622.75,-69 "/>
<polyline fill="none" stroke="black" points="622.75,-91 610.75,-103 "/>
<text text-anchor="middle" x="599.75" y="-76.3" font-family="Times,serif" font-size="14.00">Exit</text>
</g>
<!-- ship_it -->
<g id="node4" class="node">
<title>ship_it</title>
<ellipse fill="none" stroke="black" cx="498.16" cy="-80" rx="41.69" ry="18"/>
<text text-anchor="middle" x="498.16" y="-76.3" font-family="Times,serif" font-size="14.00">ship_it</text>
</g>
<!-- review_gate&#45;&gt;ship_it -->
<g id="edge2" class="edge">
<title>review_gate&#45;&gt;ship_it</title>
<path fill="none" stroke="black" d="M307.01,-52.33C351.9,-58.86 408.72,-67.13 448.52,-72.92"/>
<polygon fill="black" stroke="black" points="448.1,-76.4 458.5,-74.38 449.11,-69.47 448.1,-76.4"/>
<text text-anchor="middle" x="396.06" y="-73.8" font-family="Times,serif" font-size="14.00">[A] Approve</text>
</g>
<!-- fixes -->
<g id="node5" class="node">
<title>fixes</title>
<ellipse fill="none" stroke="black" cx="498.16" cy="-18" rx="32.49" ry="18"/>
<text text-anchor="middle" x="498.16" y="-14.3" font-family="Times,serif" font-size="14.00">fixes</text>
</g>
<!-- review_gate&#45;&gt;fixes -->
<g id="edge3" class="edge">
<title>review_gate&#45;&gt;fixes</title>
<path fill="none" stroke="black" d="M315.42,-34.7C361.78,-30.44 418.37,-25.24 455.96,-21.79"/>
<polygon fill="black" stroke="black" points="456.39,-25.26 466.03,-20.86 455.75,-18.29 456.39,-25.26"/>
<text text-anchor="middle" x="396.06" y="-34.8" font-family="Times,serif" font-size="14.00">[F] Fix</text>
</g>
<!-- ship_it&#45;&gt;exit -->
<g id="edge4" class="edge">
<title>ship_it&#45;&gt;exit</title>
<path fill="none" stroke="black" d="M539.95,-80C548.79,-80 558.02,-80 566.48,-80"/>
<polygon fill="black" stroke="black" points="566.69,-83.5 576.69,-80 566.69,-76.5 566.69,-83.5"/>
</g>
<!-- fixes&#45;&gt;review_gate -->
<g id="edge5" class="edge">
<title>fixes&#45;&gt;review_gate</title>
<path fill="none" stroke="black" d="M465.43,-17.97C436.28,-18.2 391.92,-19.25 353.56,-23 340.07,-24.32 325.77,-26.21 311.97,-28.29"/>
<polygon fill="black" stroke="black" points="311.37,-24.84 302.03,-29.84 312.44,-31.76 311.37,-24.84"/>
</g>
</g>
</svg>
