<?xml version="1.0" encoding="UTF-8" standalone="no"?>
<!DOCTYPE svg PUBLIC "-//W3C//DTD SVG 1.1//EN"
 "http://www.w3.org/Graphics/SVG/1.1/DTD/svg11.dtd">
<!-- Generated by graphviz version 2.43.0 (0)
 -->
<!-- Title: Simple Pages: 1 -->
<svg width="457pt" height="54pt"
 viewBox="0.00 0.00 457.01 54.00" xmlns="http://www.w3.org/2000/svg" xmlns:xlink="http://www.w3.org/1999/xlink">
<g id="graph0" class="graph" transform="scale(1 1) rotate(0) translate(4 50)">
<title>Simple</title>
<polygon fill="white" stroke="transparent" points="-4,4 -4,-50 453.01,-50 453.01,4 -4,4"/>
<!-- start -->
<g id="node1" class="node">
<title>start</title>
<polygon fill="none" stroke="black" points="48.72,-41 -0.22,-23 48.72,-5 97.65,-23 48.72,-41"/>
<polyline fill="none" stroke="black" points="11.05,-27.14 11.05,-18.86 "/>
<polyline fill="none" stroke="black" points="37.45,-9.14 59.98,-9.14 "/>
<polyline fill="none" stroke="black" points="86.38,-18.86 86.38,-27.14 "/>
<polyline fill="none" stroke="black" points="59.98,-36.86 37.45,-36.86 "/>
<text text-anchor="middle" x="48.72" y="-19.3" font-family="Times,serif" font-size="14.00">Start</text>
</g>
<!-- run_tests -->
<g id="node3" class="node">
<title>run_tests</title>
<ellipse fill="none" stroke="black" cx="189.98" cy="-23" rx="56.59" ry="18"/>
<text text-anchor="middle" x="189.98" y="-19.3" font-family="Times,serif" font-size="14.00">Run Tests</text>
</g>
<!-- start&#45;&gt;run_tests -->
<g id="edge1" class="edge">
<title>start&#45;&gt;run_tests</title>
<path fill="none" stroke="black" d="M97.64,-23C105.9,-23 114.61,-23 123.23,-23"/>
<polygon fill="black" stroke="black" points="123.3,-26.5 133.3,-23 123.3,-19.5 123.3,-26.5"/>
</g>
<!-- exit -->
<g id="node2" class="node">
<title>exit</title>
<polygon fill="none" stroke="black" points="449.01,-46 403.01,-46 403.01,0 449.01,0 449.01,-46"/>
<polyline fill="none" stroke="black" points="415.01,-46 403.01,-34 "/>
<polyline fill="none" stroke="black" points="403.01,-12 415.01,0 "/>
<polyline fill="none" stroke="black" points="437.01,0 449.01,-12 "/>
<polyline fill="none" stroke="black" points="449.01,-34 437.01,-46 "/>
<text text-anchor="middle" x="426.01" y="-19.3" font-family="Times,serif" font-size="14.00">Exit</text>
</g>
<!-- report -->
<g id="node4" class="node">
<title>report</title>
<ellipse fill="none" stroke="black" cx="324.77" cy="-23" rx="42.49" ry="18"/>
<text text-anchor="middle" x="324.77" y="-19.3" font-family="Times,serif" font-size="14.00">Report</text>
</g>
<!-- run_tests&#45;&gt;report -->
<g id="edge2" class="edge">
<title>run_tests&#45;&gt;report</title>
<path fill="none" stroke="black" d="M246.52,-23C255.01,-23 263.74,-23 272.14,-23"/>
<polygon fill="black" stroke="black" points="272.18,-26.5 282.18,-23 272.18,-19.5 272.18,-26.5"/>
</g>
<!-- report&#45;&gt;exit -->
<g id="edge3" class="edge">
<title>report&#45;&gt;exit</title>
<path fill="none" stroke="black" d="M367.28,-23C375.78,-23 384.6,-23 392.71,-23"/>
<polygon fill="black" stroke="black" points="392.88,-26.5 402.88,-23 392.88,-19.5 392.88,-26.5"/>
</g>
</g>
</svg>
